<?xml version="1.0" standalone="no"?>
<!DOCTYPE svg PUBLIC "-//W3C//DTD SVG 20010904//EN"
 "http://www.w3.org/TR/2001/REC-SVG-20010904/DTD/svg10.dtd">
<svg version="1.0" xmlns="http://www.w3.org/2000/svg"
 width="820.000000pt" height="748.000000pt" viewBox="0 0 820.000000 748.000000"
 preserveAspectRatio="xMidYMid meet">

<g transform="translate(0.000000,748.000000) scale(0.100000,-0.100000)"
fill="#000000" stroke="none">
<path d="M0 3740 l0 -3740 4100 0 4100 0 0 3740 0 3740 -4100 0 -4100 0 0
-3740z m7630 3542 c11 -13 20 -34 20 -46 0 -11 3 -31 6 -43 l6 -23 30 25 c38
32 81 32 113 0 30 -29 32 -59 6 -102 -22 -35 -15 -43 39 -43 44 0 84 -40 84
-84 0 -58 -31 -82 -103 -79 -33 1 -83 12 -113 23 l-53 20 -133 -140 c-122
-127 -137 -140 -168 -140 -42 0 -84 37 -84 75 0 27 15 45 181 222 l87 91 -25
53 c-15 31 -28 78 -30 113 -5 55 -3 63 18 83 43 38 87 36 119 -5z m-1663 -237
c12 -9 32 -33 44 -55 23 -40 39 -51 39 -27 0 8 11 24 25 37 35 33 81 31 113
-5 23 -28 25 -50 7 -97 -6 -16 -1 -17 58 -11 57 5 67 3 86 -16 13 -13 21 -33
21 -53 -1 -66 -43 -91 -160 -94 l-85 -3 -19 -38 c-11 -21 -52 -108 -91 -193
-65 -139 -76 -157 -108 -173 -33 -17 -38 -17 -66 -2 -33 16 -47 50 -37 88 3
13 33 82 67 153 34 71 72 152 84 181 l23 51 -35 34 c-66 63 -100 160 -70 199
30 38 70 48 104 24z m889 -33 c8 -9 14 -43 14 -75 0 -54 1 -57 19 -47 47 25
127 1 132 -40 4 -41 -4 -65 -32 -91 l-31 -29 29 -11 c61 -24 78 -36 87 -61 21
-58 -39 -119 -101 -103 -40 9 -124 53 -149 76 l-21 20 -171 -106 c-179 -110
-210 -121 -251 -87 -24 18 -29 42 -18 84 6 22 42 48 180 134 94 59 173 107
174 108 1 1 -2 26 -6 56 -8 71 3 157 24 180 30 33 93 29 121 -8z m-1416 -62
c21 0 50 -46 50 -77 0 -18 4 -33 8 -33 5 0 26 13 48 30 21 16 47 30 56 30 46
0 88 -42 88 -89 0 -38 -103 -119 -172 -136 l-28 -7 0 -148 0 -148 103 -72
c162 -116 302 -234 449 -380 l137 -137 72 -13 c57 -11 74 -11 77 -2 8 26 85
114 115 133 43 26 70 24 106 -7 45 -37 42 -73 -10 -129 -36 -39 -39 -45 -23
-51 71 -22 92 -52 73 -101 -14 -38 -38 -52 -86 -53 l-42 0 21 -56 c18 -47 20
-61 10 -88 -11 -31 -9 -38 54 -142 485 -802 601 -1805 313 -2704 -162 -506
-444 -967 -824 -1345 -556 -555 -1269 -897 -2065 -991 -199 -24 -583 -24 -780
0 -975 116 -1829 607 -2398 1377 -356 482 -576 1062 -633 1662 -17 186 -7 605
19 772 66 421 189 788 379 1129 505 907 1399 1536 2434 1710 207 35 367 48
589 48 365 0 721 -52 1039 -154 76 -24 98 -28 118 -19 40 18 63 13 100 -24
l34 -34 15 34 c8 19 14 38 14 42 0 19 46 53 74 53 67 0 96 -73 61 -157 -9 -20
-12 -40 -8 -43 5 -4 74 -41 156 -83 l147 -75 0 96 0 97 -49 18 c-27 9 -71 37
-97 60 -40 36 -47 49 -46 78 1 39 39 79 76 79 12 0 40 -13 62 -30 47 -36 54
-37 54 -7 0 49 53 105 88 92 8 -3 18 -5 22 -5z"/>
<path d="M3315 6713 c-979 -88 -1841 -581 -2391 -1369 -275 -394 -450 -836
-526 -1329 -26 -169 -35 -533 -19 -712 57 -606 275 -1153 654 -1643 104 -133
381 -412 516 -519 941 -745 2210 -917 3311 -449 388 165 699 377 1016 693 516
515 818 1137 899 1855 17 156 20 480 5 631 -41 405 -158 794 -348 1154 -51 96
-62 110 -86 113 -52 6 -61 -4 -32 -39 33 -38 33 -73 1 -104 -31 -32 -80 -33
-112 -3 -20 19 -25 20 -33 8 -5 -8 -10 -25 -10 -37 0 -90 -110 -132 -150 -58
-17 33 -6 133 20 186 l21 40 -110 117 c-60 64 -123 131 -141 147 -48 46 -62
77 -49 114 13 36 35 51 77 51 24 0 54 -25 183 -155 l154 -156 53 23 53 24 -60
84 c-33 47 -95 127 -137 177 -78 95 -77 95 -177 117 -16 4 -40 18 -54 32 -21
21 -24 31 -18 57 4 18 8 37 8 42 3 17 -158 159 -298 264 -164 122 -381 261
-410 261 -3 0 15 -30 40 -67 25 -37 45 -78 45 -91 0 -26 -50 -82 -74 -82 -45
0 -69 26 -186 199 -68 99 -126 178 -130 176 -3 -2 -33 -8 -66 -14 -118 -19
-195 19 -181 89 6 28 4 29 -51 46 -326 95 -613 135 -957 132 -115 -1 -228 -3
-250 -5z m1245 -321 c31 -32 51 -93 54 -163 l1 -46 155 -53 c259 -89 259 -89
275 -121 28 -53 -6 -109 -66 -109 -15 0 -113 30 -219 66 l-193 65 -50 -50
c-49 -50 -117 -91 -151 -91 -30 0 -66 46 -66 85 0 31 6 39 51 71 l50 37 -39
17 c-59 27 -71 82 -26 127 22 22 31 25 70 19 49 -6 50 -5 31 50 -17 51 -11 79
20 104 36 28 69 25 103 -8z m979 -391 c53 -28 100 -77 124 -130 24 -55 25
-151 3 -204 -24 -56 -80 -112 -134 -135 -47 -20 -49 -23 -61 -79 -42 -185
-121 -359 -342 -743 -218 -380 -289 -535 -344 -748 -25 -101 -45 -235 -45
-309 l0 -43 -122 0 -121 0 6 108 c20 339 132 634 440 1155 163 276 259 483
296 643 12 52 12 52 -23 98 -107 141 -40 345 133 403 48 16 142 8 190 -16z
m-1150 -155 c27 -15 94 -82 121 -124 l15 -23 197 46 c108 25 210 45 226 45 37
0 72 -39 72 -80 0 -55 -22 -67 -210 -110 -274 -64 -243 -49 -262 -128 -27
-117 -81 -176 -141 -153 -14 6 -34 22 -43 37 -19 27 -17 39 21 126 6 16 1 17
-40 16 -41 -2 -51 1 -71 25 -45 52 -20 115 50 133 l30 7 -35 31 c-66 57 -73
106 -22 146 30 24 54 25 92 6z m707 -324 c8 -9 14 -32 14 -50 0 -28 -18 -50
-147 -183 -82 -83 -149 -157 -151 -165 -2 -8 1 -20 6 -27 15 -19 42 -117 42
-154 0 -73 -95 -113 -138 -58 -11 14 -23 45 -26 70 -4 25 -10 45 -14 45 -4 0
-18 -9 -32 -20 -32 -25 -71 -25 -104 1 -32 25 -35 75 -6 112 17 22 18 26 4 31
-9 3 -29 6 -45 6 -72 0 -107 96 -51 140 23 19 36 21 88 17 33 -2 82 -14 108
-26 l49 -21 149 154 c85 89 158 156 171 158 29 5 67 -9 83 -30z m592 -127 c20
-25 20 -21 38 -342 l6 -113 35 -9 c42 -12 112 -52 135 -78 49 -53 20 -133 -48
-133 -21 0 -50 10 -72 25 l-37 25 -6 -41 c-7 -50 -37 -79 -82 -79 -36 0 -77
34 -77 64 0 43 -14 47 -51 16 -63 -54 -149 -30 -149 42 0 42 68 111 137 140
l55 22 -6 71 c-3 38 -8 135 -12 215 -6 139 -5 146 16 173 29 37 90 38 118 2z
m-4298 -640 l0 -85 -165 0 -165 0 0 -165 0 -165 145 0 145 0 0 -85 0 -85 -145
0 -145 0 0 -235 0 -235 -85 0 -85 0 0 570 0 570 250 0 250 0 0 -85z m2600
-125 l0 -120 55 0 55 0 0 -80 0 -80 -55 0 -55 0 0 -229 c0 -259 1 -261 71
-261 l39 0 0 -80 0 -80 -77 0 c-147 0 -203 62 -203 220 0 47 -3 163 -7 258
l-6 172 -34 0 -33 0 0 80 0 80 35 0 35 0 1 105 c1 58 3 110 4 115 1 6 3 12 4
15 0 3 39 5 86 5 l85 0 0 -120z m-1510 -189 l0 -88 -55 -6 c-31 -3 -71 -15
-89 -26 -62 -39 -66 -58 -66 -355 l0 -266 -85 0 -85 0 0 405 0 405 85 0 85 0
0 -52 1 -53 20 28 c26 34 100 78 148 88 20 4 37 7 39 8 1 0 2 -39 2 -88z
m-669 67 c53 -17 87 -46 112 -91 21 -40 22 -56 25 -284 4 -287 -3 -328 -67
-386 -46 -41 -93 -57 -172 -57 -100 0 -172 38 -212 113 -21 40 -22 56 -25 279
-3 192 -1 248 12 290 29 99 101 147 222 148 39 0 86 -5 105 -12z m1136 -9 c51
-25 96 -76 112 -128 6 -21 11 -104 11 -185 l0 -146 -159 0 -159 0 -6 -36 c-7
-33 -3 -68 11 -117 7 -24 61 -47 96 -40 32 6 57 37 57 70 0 22 3 23 86 23 l86
0 -6 -47 c-18 -123 -91 -192 -216 -201 -121 -8 -205 32 -253 121 -21 40 -22
53 -22 282 0 264 4 291 58 352 46 52 98 73 186 73 56 0 86 -5 118 -21z m588 2
c73 -33 125 -113 125 -193 l0 -28 -80 0 c-71 0 -80 2 -80 19 0 10 -9 30 -21
45 -43 54 -119 21 -119 -52 0 -57 20 -76 125 -117 111 -43 145 -68 175 -131
18 -37 21 -58 19 -123 -3 -65 -9 -85 -34 -126 -45 -73 -104 -100 -215 -100
-74 0 -91 3 -130 27 -67 39 -102 95 -114 181 l-5 37 65 1 c35 1 72 2 81 3 12
1 19 -9 24 -31 9 -43 24 -60 60 -68 91 -20 145 83 78 146 -17 16 -35 29 -41
29 -19 0 -163 72 -187 93 -67 62 -85 201 -37 295 25 49 60 82 107 101 42 17
160 12 204 -8z m-2212 -949 c92 -41 136 -118 145 -249 l5 -83 -92 0 -91 0 0
58 c0 103 -54 151 -133 118 -62 -25 -62 -26 -62 -397 0 -264 3 -341 14 -361
37 -70 164 -61 190 13 6 18 11 76 11 130 l0 99 -55 0 -55 0 0 80 0 80 141 0
141 0 -4 -212 c-3 -191 -5 -218 -24 -259 -45 -96 -135 -149 -253 -149 -120 0
-208 48 -252 137 l-24 48 0 385 c0 406 1 415 47 483 29 41 84 79 136 94 60 16
159 10 215 -15z m2597 -552 l0 -570 -85 0 -85 0 0 48 0 47 -21 -32 c-30 -48
-78 -73 -136 -73 -66 0 -110 30 -143 95 -25 50 -25 52 -25 315 0 285 4 314 52
371 32 37 64 51 121 51 47 0 80 -18 124 -66 l28 -30 0 207 0 207 85 0 85 0 0
-570z m330 475 l0 -85 -85 0 -85 0 0 85 0 85 85 0 85 0 0 -85z m-930 -305 l0
-90 -34 0 c-79 0 -145 -44 -165 -109 -7 -24 -11 -130 -11 -290 l0 -251 -85 0
-85 0 0 405 0 405 85 0 85 0 0 -52 0 -52 43 41 c48 47 78 64 127 74 19 4 36 7
38 8 1 0 2 -39 2 -89z m-672 65 c47 -20 78 -50 105 -100 21 -38 22 -54 25
-372 l3 -333 -85 0 -86 0 0 31 0 32 -25 -27 c-31 -33 -64 -46 -121 -46 -58 0
-103 20 -137 59 -37 44 -50 102 -45 196 9 162 80 231 250 243 l78 5 0 68 c0
56 -4 73 -20 89 -41 41 -130 14 -130 -40 0 -18 -7 -20 -85 -20 l-84 0 5 33
c17 95 52 148 119 178 52 24 180 26 233 4z m2133 -13 c43 -22 59 -38 81 -81
l28 -53 0 -329 0 -329 -80 0 -80 0 0 36 0 37 -21 -27 c-47 -60 -139 -74 -219
-33 -67 33 -95 95 -95 207 0 70 5 95 26 141 40 85 97 117 226 126 l83 6 0 64
c0 55 -4 68 -25 88 -45 46 -111 29 -129 -32 -7 -21 -13 -23 -88 -23 l-81 0 7
47 c16 119 99 183 237 183 65 0 85 -4 130 -28z m700 5 c19 -12 43 -40 54 -62
19 -37 20 -63 23 -387 l3 -348 -86 0 -85 0 0 294 c0 191 -4 304 -11 325 -19
54 -84 67 -124 26 l-25 -24 0 -311 0 -310 -85 0 -85 0 0 405 0 405 85 0 85 0
0 -46 0 -47 23 33 c47 70 159 93 228 47z m554 4 c73 -33 125 -113 125 -193 l0
-28 -79 0 c-78 0 -79 0 -86 28 -10 39 -34 62 -67 62 -41 0 -68 -32 -68 -80 0
-52 28 -82 101 -107 162 -55 209 -105 217 -227 6 -90 -11 -145 -60 -195 -46
-47 -84 -63 -158 -69 -152 -10 -254 66 -274 205 l-6 42 85 3 85 3 0 -25 c0
-82 125 -108 159 -34 31 68 10 96 -117 156 -117 54 -145 75 -172 128 -58 116
-16 271 89 327 57 30 166 32 226 4z m-4225 -310 c0 -319 0 -320 22 -335 12 -9
34 -16 48 -16 14 0 36 7 48 16 22 15 22 16 22 335 l0 319 85 0 85 0 0 -405 0
-405 -85 0 -85 0 0 43 0 42 -20 -32 c-28 -47 -72 -66 -137 -61 -66 6 -100 29
-130 88 -23 43 -23 51 -23 387 l0 343 85 0 85 0 0 -319z m2440 -86 l0 -405
-85 0 -85 0 0 405 0 405 85 0 85 0 0 -405z"/>
<path d="M1682 4360 c-38 -16 -43 -51 -40 -273 3 -193 4 -210 22 -223 25 -18
67 -18 92 0 18 13 19 30 22 235 l3 221 -25 25 c-27 27 -38 29 -74 15z"/>
<path d="M2775 4350 c-21 -23 -33 -82 -27 -133 l4 -37 79 0 79 0 0 54 c0 64
-16 113 -40 126 -30 16 -76 11 -95 -10z"/>
<path d="M3645 3090 c-47 -18 -50 -32 -53 -244 -3 -218 1 -240 50 -263 34 -17
81 -1 97 33 7 16 11 95 11 220 0 211 -7 246 -52 258 -27 7 -28 7 -53 -4z"/>
<path d="M2470 2745 c-31 -33 -39 -114 -16 -150 23 -36 96 -36 131 0 22 21 25
33 25 100 l0 75 -58 0 c-49 0 -62 -4 -82 -25z"/>
<path d="M4592 2750 c-39 -36 -48 -132 -16 -164 17 -18 85 -21 114 -6 25 13
40 62 40 131 l0 59 -58 0 c-45 0 -63 -5 -80 -20z"/>
</g>
</svg>
